<?xml version="1.0" encoding="utf-8"?>
<!-- Generator: Adobe Illustrator 18.0.0, SVG Export Plug-In . SVG Version: 6.00 Build 0)  -->
<!DOCTYPE svg PUBLIC "-//W3C//DTD SVG 1.1//EN" "http://www.w3.org/Graphics/SVG/1.1/DTD/svg11.dtd">
<svg version="1.1" id="Camada_1" xmlns="http://www.w3.org/2000/svg" xmlns:xlink="http://www.w3.org/1999/xlink" x="0px" y="0px"
	 viewBox="0 0 1024 1024" style="enable-background:new 0 0 1024 1024;" xml:space="preserve">
<style type="text/css">
	.st0{fill:#313440;}
	.st1{fill:#00BD5A;}
</style>
<g>
	<path class="st0" d="M616.1,621.5c0,57.7,0,115.3,0,173c0,97.3-78,175.2-175.3,175.3c-3.1,0-6.3,0-9.4,0
		c-14.9-0.2-23-8.3-23.1-23.4c-0.1-16.8,0-33.5,0-50.3c0-16.9,8.3-25.4,25.8-25.4c17.2,0,33.3-3.4,47.4-13.5
		c20.2-14.5,31.2-34.3,31.3-59.3c0.2-92.9,0-185.8,0.2-278.7c0-6.3-1.2-8.8-8.2-8.6c-23.6,0.5-47.2,0.2-70.7,0.2
		c-16.8-0.1-25.7-9.1-25.8-25.8c-0.1-16.2-0.1-32.4-0.2-48.6c-0.1-13.3,10.6-24.7,24-24.7c53.4-0.1,106.8-0.1,160.2,0
		c15.5,0,23.7,9.1,23.8,25.8c0.1,47.4,0,94.9,0,142.3C616.1,593.6,616.1,607.5,616.1,621.5z"/>
	<path class="st1" d="M607.3,349.5c0.1,9.7-0.6,10.4-10.2,7.4c-97.5-30.4-156.8-96.2-180.3-194.9c-7.9-33.1-9.6-66.7-8.7-100.6
		c0.2-7,2.7-7.9,8.9-6.6c50.3,10,89.8,37.2,121.1,76.7c33.8,42.7,50.9,92.6,60.8,145.4C603.4,300.9,605.6,325.2,607.3,349.5z"/>
</g>
</svg>
